<svg width="350" height="350" viewBox="0 0 350 350" fill="none" xmlns="http://www.w3.org/2000/svg">
<rect width="350" height="350" rx="175" fill="#05ACCE"/>
<path d="M244.27 105.731C240.338 101.798 235.671 98.6793 230.534 96.5511C225.397 94.423 219.891 93.3276 214.33 93.3276C208.77 93.3276 203.264 94.423 198.127 96.5511C192.99 98.6793 188.322 101.798 184.391 105.731C180.71 118.676 187.816 129.112 204.353 145.649" stroke="black" stroke-width="10" stroke-linecap="round" stroke-linejoin="round"/>
<path d="M184.391 105.731L143.451 80.459C132.995 74.4104 120.756 72.198 108.844 74.2028C96.9317 76.2076 86.0915 82.3041 78.1907 91.4421C70.1397 100.561 65.4922 112.185 65.0369 124.341C64.5817 136.497 68.3469 148.436 75.6933 158.131C91.0763 177.79 117.43 182.036 140.448 172.397L204.347 145.638" stroke="black" stroke-width="10" stroke-linecap="round" stroke-linejoin="round"/>
<path d="M89.5424 260.463C81.8477 252.293 68.8369 217.613 97.2609 173.978" stroke="black" stroke-width="10" stroke-linecap="round" stroke-linejoin="round"/>
<path d="M83.4533 249.498C83.4533 249.498 76.7756 273.224 72.3932 277.613M80.5099 216.656L106.929 243.076M91.3261 184.045L128.639 221.365M148.089 201.915L123.145 176.963M171.357 178.646L157.835 165.124" stroke="black" stroke-width="10" stroke-linecap="round" stroke-linejoin="round"/>
<path d="M241.69 103.341C241.69 103.341 262.158 83.2832 256.223 71.1941C250.288 59.105 235.898 67.8998 232.931 70.986" stroke="black" stroke-width="10" stroke-linecap="round"/>
<path d="M244.27 105.731C248.202 109.662 251.321 114.33 253.449 119.467C255.578 124.604 256.673 130.11 256.673 135.671C256.673 141.231 255.578 146.738 253.449 151.875C251.321 157.012 248.202 161.68 244.27 165.611C231.325 169.292 220.889 162.186 204.353 145.649" stroke="black" stroke-width="10" stroke-linecap="square" stroke-linejoin="round"/>
<path d="M244.27 165.611L269.542 206.553C275.588 217.01 277.797 229.248 275.79 241.16C273.783 253.071 267.686 263.91 258.547 271.809C249.429 279.86 237.805 284.508 225.649 284.963C213.494 285.418 201.555 281.653 191.86 274.306C172.207 258.929 167.956 232.568 177.601 209.55L204.359 145.649" stroke="black" stroke-width="10" stroke-linecap="round" stroke-linejoin="round"/>
<path d="M89.5422 260.463C97.7124 268.158 132.391 281.169 176.025 252.745" stroke="black" stroke-width="10" stroke-linecap="round" stroke-linejoin="round"/>
<path d="M100.507 266.553C100.507 266.553 76.7815 273.231 72.3932 277.613M133.348 269.496L106.929 243.076M165.958 258.68L128.639 221.366M148.089 201.915L173.04 226.86M171.357 178.647L184.879 192.169" stroke="black" stroke-width="10" stroke-linecap="round" stroke-linejoin="round"/>
<path d="M246.661 108.312C246.661 108.312 266.717 87.8439 278.806 93.7784C290.895 99.713 282.1 114.103 279.014 117.071" stroke="black" stroke-width="10" stroke-linecap="round"/>
</svg>
