<svg width="200" height="200" viewBox="0 0 200 200" fill="none" xmlns="http://www.w3.org/2000/svg">
<rect width="200" height="200" rx="20" fill="#343A40"/>
<path d="M157.964 99.6207C147.457 103.035 119.687 108.692 95.9451 102.945C111.379 83.1234 137.567 72.5954 148.074 69.1814C158.581 65.7675 169.312 69.8141 172.043 78.2196C174.774 86.6252 168.471 96.2068 157.964 99.6207Z" fill="#3ECF8E"/>
<path d="M54.7578 141.55C61.2515 132.612 80.3925 111.712 102.978 102.406C102.143 127.514 87.1447 151.425 80.651 160.362C74.1573 169.3 63.0968 172.334 55.9466 167.139C48.7964 161.944 48.2642 150.488 54.7578 141.55Z" fill="#3ECF8E"/>
<path d="M52.9149 71.1815C63.4218 74.5954 89.2139 86.3411 105.043 104.945C80.9061 111.91 53.5315 105.035 43.0245 101.621C32.5176 98.2069 26.214 88.6253 28.9452 80.2197C31.6763 71.8141 42.4079 67.7676 52.9149 71.1815Z" fill="#3ECF8E"/>
<path d="M116.006 43.0036C116.006 54.0513 112.805 82.2106 100.003 103.014C85.9203 82.2106 84 54.0513 84 43.0036C84 31.9559 91.1647 23 100.003 23C108.841 23 116.006 31.9559 116.006 43.0036Z" fill="#3ECF8E"/>
<path d="M121.273 158.362C114.78 149.425 100.817 124.762 98.9466 100.406C122.568 108.959 140.673 130.612 147.167 139.55C153.66 148.488 153.128 159.944 145.978 165.139C138.828 170.334 127.767 167.3 121.273 158.362Z" fill="#3ECF8E"/>
</svg>
